<mxfile host="65bd71144e">
    <diagram name="Page-1" id="tSwkpoNvKomOQFUNYU_Y">
        <mxGraphModel dx="1242" dy="563" grid="1" gridSize="10" guides="1" tooltips="1" connect="1" arrows="1" fold="1" page="1" pageScale="1" pageWidth="850" pageHeight="1100" math="0" shadow="0">
            <root>
                <mxCell id="0"/>
                <mxCell id="1" parent="0"/>
                <mxCell id="7XZiGTUoOBMjNa7C7n4A-1" value="" style="ellipse;html=1;shape=startState;fillColor=#000000;strokeColor=#ff0000;" parent="1" vertex="1">
                    <mxGeometry y="30" width="30" height="30" as="geometry"/>
                </mxCell>
                <mxCell id="7XZiGTUoOBMjNa7C7n4A-2" value="" style="edgeStyle=orthogonalEdgeStyle;html=1;verticalAlign=bottom;endArrow=open;endSize=8;strokeColor=#ff0000;rounded=0;entryX=0.5;entryY=0;entryDx=0;entryDy=0;" parent="1" source="7XZiGTUoOBMjNa7C7n4A-1" target="7XZiGTUoOBMjNa7C7n4A-4" edge="1">
                    <mxGeometry relative="1" as="geometry">
                        <mxPoint x="190" y="80" as="targetPoint"/>
                        <Array as="points">
                            <mxPoint x="191" y="45"/>
                        </Array>
                    </mxGeometry>
                </mxCell>
                <mxCell id="7XZiGTUoOBMjNa7C7n4A-6" style="edgeStyle=orthogonalEdgeStyle;rounded=0;orthogonalLoop=1;jettySize=auto;html=1;entryX=0.5;entryY=0;entryDx=0;entryDy=0;" parent="1" source="7XZiGTUoOBMjNa7C7n4A-4" target="7XZiGTUoOBMjNa7C7n4A-5" edge="1">
                    <mxGeometry relative="1" as="geometry"/>
                </mxCell>
                <mxCell id="7XZiGTUoOBMjNa7C7n4A-4" value="collect choice of peanut butter and jelly in hands" style="rounded=1;whiteSpace=wrap;html=1;" parent="1" vertex="1">
                    <mxGeometry x="130" y="90" width="120" height="60" as="geometry"/>
                </mxCell>
                <mxCell id="7XZiGTUoOBMjNa7C7n4A-8" style="edgeStyle=orthogonalEdgeStyle;rounded=0;orthogonalLoop=1;jettySize=auto;html=1;entryX=0.5;entryY=0;entryDx=0;entryDy=0;" parent="1" source="7XZiGTUoOBMjNa7C7n4A-5" target="7XZiGTUoOBMjNa7C7n4A-7" edge="1">
                    <mxGeometry relative="1" as="geometry"/>
                </mxCell>
                <mxCell id="7XZiGTUoOBMjNa7C7n4A-5" value="Place ingredients right side up in front of your person" style="rounded=1;whiteSpace=wrap;html=1;" parent="1" vertex="1">
                    <mxGeometry x="130" y="200" width="120" height="60" as="geometry"/>
                </mxCell>
                <mxCell id="7XZiGTUoOBMjNa7C7n4A-10" style="edgeStyle=orthogonalEdgeStyle;rounded=0;orthogonalLoop=1;jettySize=auto;html=1;entryX=0.5;entryY=0;entryDx=0;entryDy=0;" parent="1" source="7XZiGTUoOBMjNa7C7n4A-7" target="7XZiGTUoOBMjNa7C7n4A-9" edge="1">
                    <mxGeometry relative="1" as="geometry"/>
                </mxCell>
                <mxCell id="7XZiGTUoOBMjNa7C7n4A-7" value="Pick up middle of bread bag lightly in left hand" style="rounded=1;whiteSpace=wrap;html=1;" parent="1" vertex="1">
                    <mxGeometry x="130" y="300" width="120" height="60" as="geometry"/>
                </mxCell>
                <mxCell id="7XZiGTUoOBMjNa7C7n4A-13" style="edgeStyle=orthogonalEdgeStyle;rounded=0;orthogonalLoop=1;jettySize=auto;html=1;" parent="1" source="7XZiGTUoOBMjNa7C7n4A-9" target="7XZiGTUoOBMjNa7C7n4A-11" edge="1">
                    <mxGeometry relative="1" as="geometry"/>
                </mxCell>
                <mxCell id="7XZiGTUoOBMjNa7C7n4A-9" value="Untwist bread tie with right hand" style="rounded=1;whiteSpace=wrap;html=1;" parent="1" vertex="1">
                    <mxGeometry x="130" y="400" width="120" height="60" as="geometry"/>
                </mxCell>
                <mxCell id="7XZiGTUoOBMjNa7C7n4A-15" style="edgeStyle=orthogonalEdgeStyle;rounded=0;orthogonalLoop=1;jettySize=auto;html=1;entryX=0.5;entryY=0;entryDx=0;entryDy=0;" parent="1" source="7XZiGTUoOBMjNa7C7n4A-11" target="7XZiGTUoOBMjNa7C7n4A-14" edge="1">
                    <mxGeometry relative="1" as="geometry"/>
                </mxCell>
                <mxCell id="7XZiGTUoOBMjNa7C7n4A-11" value="verify bread tie is off" style="rounded=1;whiteSpace=wrap;html=1;" parent="1" vertex="1">
                    <mxGeometry x="130" y="490" width="120" height="60" as="geometry"/>
                </mxCell>
                <mxCell id="7XZiGTUoOBMjNa7C7n4A-16" style="edgeStyle=orthogonalEdgeStyle;rounded=0;orthogonalLoop=1;jettySize=auto;html=1;entryX=1;entryY=0.5;entryDx=0;entryDy=0;exitX=1;exitY=0.5;exitDx=0;exitDy=0;" parent="1" source="7XZiGTUoOBMjNa7C7n4A-14" target="7XZiGTUoOBMjNa7C7n4A-9" edge="1">
                    <mxGeometry relative="1" as="geometry">
                        <Array as="points">
                            <mxPoint x="280" y="610"/>
                            <mxPoint x="280" y="430"/>
                        </Array>
                    </mxGeometry>
                </mxCell>
                <mxCell id="7XZiGTUoOBMjNa7C7n4A-156" value="Twist tie not off bread bag" style="edgeLabel;html=1;align=center;verticalAlign=middle;resizable=0;points=[];" parent="7XZiGTUoOBMjNa7C7n4A-16" vertex="1" connectable="0">
                    <mxGeometry x="-0.0214" y="-1" relative="1" as="geometry">
                        <mxPoint y="27" as="offset"/>
                    </mxGeometry>
                </mxCell>
                <mxCell id="7XZiGTUoOBMjNa7C7n4A-14" value="" style="rhombus;whiteSpace=wrap;html=1;" parent="1" vertex="1">
                    <mxGeometry x="170" y="590" width="40" height="40" as="geometry"/>
                </mxCell>
                <mxCell id="7XZiGTUoOBMjNa7C7n4A-20" style="edgeStyle=orthogonalEdgeStyle;rounded=0;orthogonalLoop=1;jettySize=auto;html=1;entryX=0.5;entryY=0;entryDx=0;entryDy=0;" parent="1" source="7XZiGTUoOBMjNa7C7n4A-17" target="7XZiGTUoOBMjNa7C7n4A-19" edge="1">
                    <mxGeometry relative="1" as="geometry"/>
                </mxCell>
                <mxCell id="7XZiGTUoOBMjNa7C7n4A-17" value="Place bread bag on table" style="rounded=1;whiteSpace=wrap;html=1;" parent="1" vertex="1">
                    <mxGeometry x="130" y="680" width="120" height="60" as="geometry"/>
                </mxCell>
                <mxCell id="7XZiGTUoOBMjNa7C7n4A-18" style="edgeStyle=orthogonalEdgeStyle;rounded=0;orthogonalLoop=1;jettySize=auto;html=1;entryX=0;entryY=0.65;entryDx=0;entryDy=0;entryPerimeter=0;" parent="1" source="7XZiGTUoOBMjNa7C7n4A-14" target="7XZiGTUoOBMjNa7C7n4A-17" edge="1">
                    <mxGeometry relative="1" as="geometry"/>
                </mxCell>
                <mxCell id="7XZiGTUoOBMjNa7C7n4A-155" value="Bread tie off bread bag" style="edgeLabel;html=1;align=center;verticalAlign=middle;resizable=0;points=[];" parent="7XZiGTUoOBMjNa7C7n4A-18" vertex="1" connectable="0">
                    <mxGeometry x="-0.3333" y="-1" relative="1" as="geometry">
                        <mxPoint as="offset"/>
                    </mxGeometry>
                </mxCell>
                <mxCell id="7XZiGTUoOBMjNa7C7n4A-22" style="edgeStyle=orthogonalEdgeStyle;rounded=0;orthogonalLoop=1;jettySize=auto;html=1;entryX=0.5;entryY=0;entryDx=0;entryDy=0;" parent="1" source="7XZiGTUoOBMjNa7C7n4A-19" target="7XZiGTUoOBMjNa7C7n4A-21" edge="1">
                    <mxGeometry relative="1" as="geometry"/>
                </mxCell>
                <mxCell id="7XZiGTUoOBMjNa7C7n4A-19" value="hold back of bread bag with left hand" style="rounded=1;whiteSpace=wrap;html=1;" parent="1" vertex="1">
                    <mxGeometry x="130" y="780" width="120" height="60" as="geometry"/>
                </mxCell>
                <mxCell id="7XZiGTUoOBMjNa7C7n4A-28" style="edgeStyle=orthogonalEdgeStyle;rounded=0;orthogonalLoop=1;jettySize=auto;html=1;entryX=0.5;entryY=0;entryDx=0;entryDy=0;" parent="1" source="7XZiGTUoOBMjNa7C7n4A-21" target="7XZiGTUoOBMjNa7C7n4A-23" edge="1">
                    <mxGeometry relative="1" as="geometry"/>
                </mxCell>
                <mxCell id="7XZiGTUoOBMjNa7C7n4A-21" value="Insert right hand into bread bag till touching bread" style="rounded=1;whiteSpace=wrap;html=1;" parent="1" vertex="1">
                    <mxGeometry x="130" y="880" width="120" height="60" as="geometry"/>
                </mxCell>
                <mxCell id="7XZiGTUoOBMjNa7C7n4A-25" style="edgeStyle=orthogonalEdgeStyle;rounded=0;orthogonalLoop=1;jettySize=auto;html=1;" parent="1" source="7XZiGTUoOBMjNa7C7n4A-23" target="7XZiGTUoOBMjNa7C7n4A-24" edge="1">
                    <mxGeometry relative="1" as="geometry"/>
                </mxCell>
                <mxCell id="7XZiGTUoOBMjNa7C7n4A-23" value="Grab 2 slices of bread from bread bag without crushing bread" style="rounded=1;whiteSpace=wrap;html=1;" parent="1" vertex="1">
                    <mxGeometry x="130" y="980" width="120" height="60" as="geometry"/>
                </mxCell>
                <mxCell id="7XZiGTUoOBMjNa7C7n4A-27" style="edgeStyle=orthogonalEdgeStyle;rounded=0;orthogonalLoop=1;jettySize=auto;html=1;" parent="1" source="7XZiGTUoOBMjNa7C7n4A-24" target="7XZiGTUoOBMjNa7C7n4A-26" edge="1">
                    <mxGeometry relative="1" as="geometry"/>
                </mxCell>
                <mxCell id="7XZiGTUoOBMjNa7C7n4A-24" value="Remove bread from bread bag and place on table, each piece side by side in front of person not touching other materials" style="rounded=1;whiteSpace=wrap;html=1;" parent="1" vertex="1">
                    <mxGeometry x="130" y="1060" width="120" height="90" as="geometry"/>
                </mxCell>
                <mxCell id="7XZiGTUoOBMjNa7C7n4A-31" style="edgeStyle=orthogonalEdgeStyle;rounded=0;orthogonalLoop=1;jettySize=auto;html=1;entryX=0.5;entryY=0;entryDx=0;entryDy=0;" parent="1" source="7XZiGTUoOBMjNa7C7n4A-26" target="7XZiGTUoOBMjNa7C7n4A-29" edge="1">
                    <mxGeometry relative="1" as="geometry"/>
                </mxCell>
                <mxCell id="7XZiGTUoOBMjNa7C7n4A-26" value="remove left hand from bread bag" style="rounded=1;whiteSpace=wrap;html=1;" parent="1" vertex="1">
                    <mxGeometry x="130" y="1170" width="120" height="60" as="geometry"/>
                </mxCell>
                <mxCell id="7XZiGTUoOBMjNa7C7n4A-32" style="edgeStyle=orthogonalEdgeStyle;rounded=0;orthogonalLoop=1;jettySize=auto;html=1;" parent="1" source="7XZiGTUoOBMjNa7C7n4A-29" target="7XZiGTUoOBMjNa7C7n4A-30" edge="1">
                    <mxGeometry relative="1" as="geometry"/>
                </mxCell>
                <mxCell id="7XZiGTUoOBMjNa7C7n4A-29" value="Take hold of Peanut butter jar in left hand" style="rounded=1;whiteSpace=wrap;html=1;" parent="1" vertex="1">
                    <mxGeometry x="130" y="1270" width="120" height="60" as="geometry"/>
                </mxCell>
                <mxCell id="7XZiGTUoOBMjNa7C7n4A-34" style="edgeStyle=orthogonalEdgeStyle;rounded=0;orthogonalLoop=1;jettySize=auto;html=1;entryX=0.5;entryY=0;entryDx=0;entryDy=0;" parent="1" source="7XZiGTUoOBMjNa7C7n4A-30" target="7XZiGTUoOBMjNa7C7n4A-33" edge="1">
                    <mxGeometry relative="1" as="geometry"/>
                </mxCell>
                <mxCell id="7XZiGTUoOBMjNa7C7n4A-30" value="Place right hand on cap" style="rounded=1;whiteSpace=wrap;html=1;" parent="1" vertex="1">
                    <mxGeometry x="130" y="1370" width="120" height="60" as="geometry"/>
                </mxCell>
                <mxCell id="7XZiGTUoOBMjNa7C7n4A-36" style="edgeStyle=orthogonalEdgeStyle;rounded=0;orthogonalLoop=1;jettySize=auto;html=1;" parent="1" source="7XZiGTUoOBMjNa7C7n4A-33" target="7XZiGTUoOBMjNa7C7n4A-35" edge="1">
                    <mxGeometry relative="1" as="geometry"/>
                </mxCell>
                <mxCell id="7XZiGTUoOBMjNa7C7n4A-33" value="Grasp cap with right hand" style="rounded=1;whiteSpace=wrap;html=1;" parent="1" vertex="1">
                    <mxGeometry x="130" y="1470" width="120" height="60" as="geometry"/>
                </mxCell>
                <mxCell id="7XZiGTUoOBMjNa7C7n4A-38" style="edgeStyle=orthogonalEdgeStyle;rounded=0;orthogonalLoop=1;jettySize=auto;html=1;entryX=0.5;entryY=0;entryDx=0;entryDy=0;" parent="1" source="7XZiGTUoOBMjNa7C7n4A-35" target="7XZiGTUoOBMjNa7C7n4A-37" edge="1">
                    <mxGeometry relative="1" as="geometry"/>
                </mxCell>
                <mxCell id="7XZiGTUoOBMjNa7C7n4A-35" value="Twist counter clockwise 1 full rotation" style="rounded=1;whiteSpace=wrap;html=1;" parent="1" vertex="1">
                    <mxGeometry x="130" y="1560" width="120" height="60" as="geometry"/>
                </mxCell>
                <mxCell id="7XZiGTUoOBMjNa7C7n4A-41" style="edgeStyle=orthogonalEdgeStyle;rounded=0;orthogonalLoop=1;jettySize=auto;html=1;" parent="1" source="7XZiGTUoOBMjNa7C7n4A-37" target="7XZiGTUoOBMjNa7C7n4A-39" edge="1">
                    <mxGeometry relative="1" as="geometry"/>
                </mxCell>
                <mxCell id="7XZiGTUoOBMjNa7C7n4A-37" value="Pull cap" style="rounded=1;whiteSpace=wrap;html=1;" parent="1" vertex="1">
                    <mxGeometry x="130" y="1660" width="120" height="60" as="geometry"/>
                </mxCell>
                <mxCell id="7XZiGTUoOBMjNa7C7n4A-42" style="edgeStyle=orthogonalEdgeStyle;rounded=0;orthogonalLoop=1;jettySize=auto;html=1;" parent="1" source="7XZiGTUoOBMjNa7C7n4A-39" target="7XZiGTUoOBMjNa7C7n4A-40" edge="1">
                    <mxGeometry relative="1" as="geometry"/>
                </mxCell>
                <mxCell id="7XZiGTUoOBMjNa7C7n4A-39" value="Verify cap is off rest of jar" style="rounded=1;whiteSpace=wrap;html=1;" parent="1" vertex="1">
                    <mxGeometry x="130" y="1760" width="120" height="60" as="geometry"/>
                </mxCell>
                <mxCell id="7XZiGTUoOBMjNa7C7n4A-43" style="edgeStyle=orthogonalEdgeStyle;rounded=0;orthogonalLoop=1;jettySize=auto;html=1;entryX=1;entryY=0.5;entryDx=0;entryDy=0;" parent="1" source="7XZiGTUoOBMjNa7C7n4A-40" target="7XZiGTUoOBMjNa7C7n4A-35" edge="1">
                    <mxGeometry relative="1" as="geometry">
                        <Array as="points">
                            <mxPoint x="270" y="1890"/>
                            <mxPoint x="270" y="1590"/>
                        </Array>
                    </mxGeometry>
                </mxCell>
                <mxCell id="7XZiGTUoOBMjNa7C7n4A-44" value="Cap is not off jar" style="edgeLabel;html=1;align=center;verticalAlign=middle;resizable=0;points=[];" parent="7XZiGTUoOBMjNa7C7n4A-43" vertex="1" connectable="0">
                    <mxGeometry x="-0.4556" y="-1" relative="1" as="geometry">
                        <mxPoint y="28" as="offset"/>
                    </mxGeometry>
                </mxCell>
                <mxCell id="7XZiGTUoOBMjNa7C7n4A-46" style="edgeStyle=orthogonalEdgeStyle;rounded=0;orthogonalLoop=1;jettySize=auto;html=1;entryX=0.5;entryY=0;entryDx=0;entryDy=0;" parent="1" source="7XZiGTUoOBMjNa7C7n4A-40" target="7XZiGTUoOBMjNa7C7n4A-45" edge="1">
                    <mxGeometry relative="1" as="geometry"/>
                </mxCell>
                <mxCell id="7XZiGTUoOBMjNa7C7n4A-154" value="Cap off peanut butter jar" style="edgeLabel;html=1;align=center;verticalAlign=middle;resizable=0;points=[];" parent="7XZiGTUoOBMjNa7C7n4A-46" vertex="1" connectable="0">
                    <mxGeometry x="-0.4" y="2" relative="1" as="geometry">
                        <mxPoint as="offset"/>
                    </mxGeometry>
                </mxCell>
                <mxCell id="7XZiGTUoOBMjNa7C7n4A-40" value="" style="rhombus;whiteSpace=wrap;html=1;" parent="1" vertex="1">
                    <mxGeometry x="150" y="1850" width="80" height="80" as="geometry"/>
                </mxCell>
                <mxCell id="7XZiGTUoOBMjNa7C7n4A-48" style="edgeStyle=orthogonalEdgeStyle;rounded=0;orthogonalLoop=1;jettySize=auto;html=1;entryX=0.5;entryY=0;entryDx=0;entryDy=0;" parent="1" source="7XZiGTUoOBMjNa7C7n4A-45" target="7XZiGTUoOBMjNa7C7n4A-47" edge="1">
                    <mxGeometry relative="1" as="geometry"/>
                </mxCell>
                <mxCell id="7XZiGTUoOBMjNa7C7n4A-45" value="place cap on table away from bread" style="rounded=1;whiteSpace=wrap;html=1;" parent="1" vertex="1">
                    <mxGeometry x="130" y="1980" width="120" height="60" as="geometry"/>
                </mxCell>
                <mxCell id="7XZiGTUoOBMjNa7C7n4A-55" style="edgeStyle=orthogonalEdgeStyle;rounded=0;orthogonalLoop=1;jettySize=auto;html=1;" parent="1" source="7XZiGTUoOBMjNa7C7n4A-47" target="7XZiGTUoOBMjNa7C7n4A-53" edge="1">
                    <mxGeometry relative="1" as="geometry"/>
                </mxCell>
                <mxCell id="7XZiGTUoOBMjNa7C7n4A-47" value="Grab knife on non-serrated handle with right hand" style="rounded=1;whiteSpace=wrap;html=1;" parent="1" vertex="1">
                    <mxGeometry x="130" y="2070" width="120" height="60" as="geometry"/>
                </mxCell>
                <mxCell id="7XZiGTUoOBMjNa7C7n4A-61" style="edgeStyle=orthogonalEdgeStyle;rounded=0;orthogonalLoop=1;jettySize=auto;html=1;entryX=0.5;entryY=0;entryDx=0;entryDy=0;" parent="1" source="7XZiGTUoOBMjNa7C7n4A-49" target="7XZiGTUoOBMjNa7C7n4A-57" edge="1">
                    <mxGeometry relative="1" as="geometry"/>
                </mxCell>
                <mxCell id="7XZiGTUoOBMjNa7C7n4A-49" value="Place serraded edge of knife into peanut butter till 50% of knife is submerged " style="rounded=1;whiteSpace=wrap;html=1;" parent="1" vertex="1">
                    <mxGeometry x="240" y="2210" width="120" height="60" as="geometry"/>
                </mxCell>
                <mxCell id="7XZiGTUoOBMjNa7C7n4A-54" style="edgeStyle=orthogonalEdgeStyle;rounded=0;orthogonalLoop=1;jettySize=auto;html=1;entryX=0.5;entryY=0;entryDx=0;entryDy=0;" parent="1" source="7XZiGTUoOBMjNa7C7n4A-53" target="7XZiGTUoOBMjNa7C7n4A-49" edge="1">
                    <mxGeometry relative="1" as="geometry"/>
                </mxCell>
                <mxCell id="7XZiGTUoOBMjNa7C7n4A-159" value="If jar &amp;gt;50% full" style="edgeLabel;html=1;align=center;verticalAlign=middle;resizable=0;points=[];" parent="7XZiGTUoOBMjNa7C7n4A-54" vertex="1" connectable="0">
                    <mxGeometry x="0.15" relative="1" as="geometry">
                        <mxPoint as="offset"/>
                    </mxGeometry>
                </mxCell>
                <mxCell id="7XZiGTUoOBMjNa7C7n4A-58" style="edgeStyle=orthogonalEdgeStyle;rounded=0;orthogonalLoop=1;jettySize=auto;html=1;entryX=0.5;entryY=0;entryDx=0;entryDy=0;" parent="1" source="7XZiGTUoOBMjNa7C7n4A-53" target="7XZiGTUoOBMjNa7C7n4A-56" edge="1">
                    <mxGeometry relative="1" as="geometry">
                        <Array as="points">
                            <mxPoint x="105" y="2175"/>
                        </Array>
                    </mxGeometry>
                </mxCell>
                <mxCell id="7XZiGTUoOBMjNa7C7n4A-157" value="If jar &amp;lt;50% full" style="edgeLabel;html=1;align=center;verticalAlign=middle;resizable=0;points=[];" parent="7XZiGTUoOBMjNa7C7n4A-58" vertex="1" connectable="0">
                    <mxGeometry x="-0.3684" y="1" relative="1" as="geometry">
                        <mxPoint x="-30" y="-1" as="offset"/>
                    </mxGeometry>
                </mxCell>
                <mxCell id="7XZiGTUoOBMjNa7C7n4A-53" value="" style="rhombus;whiteSpace=wrap;html=1;" parent="1" vertex="1">
                    <mxGeometry x="165" y="2150" width="50" height="50" as="geometry"/>
                </mxCell>
                <mxCell id="7XZiGTUoOBMjNa7C7n4A-59" style="edgeStyle=orthogonalEdgeStyle;rounded=0;orthogonalLoop=1;jettySize=auto;html=1;entryX=0.5;entryY=0;entryDx=0;entryDy=0;" parent="1" source="7XZiGTUoOBMjNa7C7n4A-56" target="7XZiGTUoOBMjNa7C7n4A-57" edge="1">
                    <mxGeometry relative="1" as="geometry"/>
                </mxCell>
                <mxCell id="7XZiGTUoOBMjNa7C7n4A-56" value="Insert knife into peanut butter jar till touching peanut butter mass" style="rounded=1;whiteSpace=wrap;html=1;" parent="1" vertex="1">
                    <mxGeometry x="45" y="2210" width="120" height="60" as="geometry"/>
                </mxCell>
                <mxCell id="7XZiGTUoOBMjNa7C7n4A-63" style="edgeStyle=orthogonalEdgeStyle;rounded=0;orthogonalLoop=1;jettySize=auto;html=1;entryX=0.5;entryY=0;entryDx=0;entryDy=0;" parent="1" source="7XZiGTUoOBMjNa7C7n4A-57" target="7XZiGTUoOBMjNa7C7n4A-62" edge="1">
                    <mxGeometry relative="1" as="geometry"/>
                </mxCell>
                <mxCell id="7XZiGTUoOBMjNa7C7n4A-57" value="Scrape peanut butter from jar toward mass of peanut butter" style="rounded=1;whiteSpace=wrap;html=1;" parent="1" vertex="1">
                    <mxGeometry x="130" y="2310" width="120" height="60" as="geometry"/>
                </mxCell>
                <mxCell id="7XZiGTUoOBMjNa7C7n4A-65" style="edgeStyle=orthogonalEdgeStyle;rounded=0;orthogonalLoop=1;jettySize=auto;html=1;entryX=0.5;entryY=0;entryDx=0;entryDy=0;" parent="1" source="7XZiGTUoOBMjNa7C7n4A-62" target="7XZiGTUoOBMjNa7C7n4A-64" edge="1">
                    <mxGeometry relative="1" as="geometry"/>
                </mxCell>
                <mxCell id="7XZiGTUoOBMjNa7C7n4A-62" value="remove knife from peanut butter jar" style="rounded=1;whiteSpace=wrap;html=1;" parent="1" vertex="1">
                    <mxGeometry x="130" y="2410" width="120" height="60" as="geometry"/>
                </mxCell>
                <mxCell id="7XZiGTUoOBMjNa7C7n4A-69" style="edgeStyle=orthogonalEdgeStyle;rounded=0;orthogonalLoop=1;jettySize=auto;html=1;entryX=0.5;entryY=0;entryDx=0;entryDy=0;" parent="1" source="7XZiGTUoOBMjNa7C7n4A-64" target="7XZiGTUoOBMjNa7C7n4A-67" edge="1">
                    <mxGeometry relative="1" as="geometry"/>
                </mxCell>
                <mxCell id="7XZiGTUoOBMjNa7C7n4A-64" value="Verify glob of peanut butter on knife" style="rounded=1;whiteSpace=wrap;html=1;" parent="1" vertex="1">
                    <mxGeometry x="130" y="2520" width="120" height="60" as="geometry"/>
                </mxCell>
                <mxCell id="7XZiGTUoOBMjNa7C7n4A-68" style="edgeStyle=orthogonalEdgeStyle;rounded=0;orthogonalLoop=1;jettySize=auto;html=1;entryX=0.5;entryY=0;entryDx=0;entryDy=0;" parent="1" source="7XZiGTUoOBMjNa7C7n4A-67" target="7XZiGTUoOBMjNa7C7n4A-53" edge="1">
                    <mxGeometry relative="1" as="geometry">
                        <mxPoint x="480" y="2130" as="targetPoint"/>
                        <Array as="points">
                            <mxPoint x="470" y="2670"/>
                            <mxPoint x="470" y="2140"/>
                            <mxPoint x="190" y="2140"/>
                        </Array>
                    </mxGeometry>
                </mxCell>
                <mxCell id="7XZiGTUoOBMjNa7C7n4A-70" value="No Peanut butter on knife" style="edgeLabel;html=1;align=center;verticalAlign=middle;resizable=0;points=[];" parent="7XZiGTUoOBMjNa7C7n4A-68" vertex="1" connectable="0">
                    <mxGeometry x="-0.8887" y="-1" relative="1" as="geometry">
                        <mxPoint x="41" y="-1" as="offset"/>
                    </mxGeometry>
                </mxCell>
                <mxCell id="7XZiGTUoOBMjNa7C7n4A-73" style="edgeStyle=orthogonalEdgeStyle;rounded=0;orthogonalLoop=1;jettySize=auto;html=1;entryX=0.5;entryY=0;entryDx=0;entryDy=0;" parent="1" source="7XZiGTUoOBMjNa7C7n4A-67" target="7XZiGTUoOBMjNa7C7n4A-71" edge="1">
                    <mxGeometry relative="1" as="geometry"/>
                </mxCell>
                <mxCell id="7XZiGTUoOBMjNa7C7n4A-153" value="Peanut Butter on knife" style="edgeLabel;html=1;align=center;verticalAlign=middle;resizable=0;points=[];" parent="7XZiGTUoOBMjNa7C7n4A-73" vertex="1" connectable="0">
                    <mxGeometry x="-0.3714" y="2" relative="1" as="geometry">
                        <mxPoint as="offset"/>
                    </mxGeometry>
                </mxCell>
                <mxCell id="7XZiGTUoOBMjNa7C7n4A-67" value="" style="rhombus;whiteSpace=wrap;html=1;" parent="1" vertex="1">
                    <mxGeometry x="150" y="2630" width="80" height="80" as="geometry"/>
                </mxCell>
                <mxCell id="7XZiGTUoOBMjNa7C7n4A-74" style="edgeStyle=orthogonalEdgeStyle;rounded=0;orthogonalLoop=1;jettySize=auto;html=1;entryX=0.5;entryY=0;entryDx=0;entryDy=0;" parent="1" source="7XZiGTUoOBMjNa7C7n4A-71" target="7XZiGTUoOBMjNa7C7n4A-72" edge="1">
                    <mxGeometry relative="1" as="geometry"/>
                </mxCell>
                <mxCell id="7XZiGTUoOBMjNa7C7n4A-71" value="Place peanut butter glob on bread lightly" style="rounded=1;whiteSpace=wrap;html=1;" parent="1" vertex="1">
                    <mxGeometry x="130" y="2780" width="120" height="60" as="geometry"/>
                </mxCell>
                <mxCell id="7XZiGTUoOBMjNa7C7n4A-76" style="edgeStyle=orthogonalEdgeStyle;rounded=0;orthogonalLoop=1;jettySize=auto;html=1;entryX=0.5;entryY=0;entryDx=0;entryDy=0;" parent="1" source="7XZiGTUoOBMjNa7C7n4A-72" target="7XZiGTUoOBMjNa7C7n4A-75" edge="1">
                    <mxGeometry relative="1" as="geometry"/>
                </mxCell>
                <mxCell id="7XZiGTUoOBMjNa7C7n4A-72" value="Spread peanut butter on bread staying within the boundrys of the crust till evenly spread" style="rounded=1;whiteSpace=wrap;html=1;" parent="1" vertex="1">
                    <mxGeometry x="130" y="2920" width="120" height="80" as="geometry"/>
                </mxCell>
                <mxCell id="7XZiGTUoOBMjNa7C7n4A-78" style="edgeStyle=orthogonalEdgeStyle;rounded=0;orthogonalLoop=1;jettySize=auto;html=1;entryX=0.5;entryY=0;entryDx=0;entryDy=0;" parent="1" source="7XZiGTUoOBMjNa7C7n4A-75" target="7XZiGTUoOBMjNa7C7n4A-77" edge="1">
                    <mxGeometry relative="1" as="geometry"/>
                </mxCell>
                <mxCell id="7XZiGTUoOBMjNa7C7n4A-75" value="Place knife on table away from all other objects" style="rounded=1;whiteSpace=wrap;html=1;" parent="1" vertex="1">
                    <mxGeometry x="130" y="3050" width="120" height="60" as="geometry"/>
                </mxCell>
                <mxCell id="7XZiGTUoOBMjNa7C7n4A-122" style="edgeStyle=orthogonalEdgeStyle;rounded=0;orthogonalLoop=1;jettySize=auto;html=1;entryX=0.5;entryY=0;entryDx=0;entryDy=0;" parent="1" source="7XZiGTUoOBMjNa7C7n4A-77" target="7XZiGTUoOBMjNa7C7n4A-81" edge="1">
                    <mxGeometry relative="1" as="geometry"/>
                </mxCell>
                <mxCell id="7XZiGTUoOBMjNa7C7n4A-77" value="Place peanut butter jar back on table away from other objects" style="rounded=1;whiteSpace=wrap;html=1;" parent="1" vertex="1">
                    <mxGeometry x="130" y="3150" width="120" height="60" as="geometry"/>
                </mxCell>
                <mxCell id="7XZiGTUoOBMjNa7C7n4A-80" style="edgeStyle=orthogonalEdgeStyle;rounded=0;orthogonalLoop=1;jettySize=auto;html=1;" parent="1" source="7XZiGTUoOBMjNa7C7n4A-81" target="7XZiGTUoOBMjNa7C7n4A-83" edge="1">
                    <mxGeometry relative="1" as="geometry"/>
                </mxCell>
                <mxCell id="7XZiGTUoOBMjNa7C7n4A-81" value="Take hold of jelly jar in left hand" style="rounded=1;whiteSpace=wrap;html=1;" parent="1" vertex="1">
                    <mxGeometry x="130" y="3280" width="120" height="60" as="geometry"/>
                </mxCell>
                <mxCell id="7XZiGTUoOBMjNa7C7n4A-82" style="edgeStyle=orthogonalEdgeStyle;rounded=0;orthogonalLoop=1;jettySize=auto;html=1;entryX=0.5;entryY=0;entryDx=0;entryDy=0;" parent="1" source="7XZiGTUoOBMjNa7C7n4A-83" target="7XZiGTUoOBMjNa7C7n4A-85" edge="1">
                    <mxGeometry relative="1" as="geometry"/>
                </mxCell>
                <mxCell id="7XZiGTUoOBMjNa7C7n4A-83" value="Place right hand on cap" style="rounded=1;whiteSpace=wrap;html=1;" parent="1" vertex="1">
                    <mxGeometry x="130" y="3380" width="120" height="60" as="geometry"/>
                </mxCell>
                <mxCell id="7XZiGTUoOBMjNa7C7n4A-84" style="edgeStyle=orthogonalEdgeStyle;rounded=0;orthogonalLoop=1;jettySize=auto;html=1;" parent="1" source="7XZiGTUoOBMjNa7C7n4A-85" target="7XZiGTUoOBMjNa7C7n4A-87" edge="1">
                    <mxGeometry relative="1" as="geometry"/>
                </mxCell>
                <mxCell id="7XZiGTUoOBMjNa7C7n4A-85" value="Grasp cap with right hand" style="rounded=1;whiteSpace=wrap;html=1;" parent="1" vertex="1">
                    <mxGeometry x="130" y="3480" width="120" height="60" as="geometry"/>
                </mxCell>
                <mxCell id="7XZiGTUoOBMjNa7C7n4A-86" style="edgeStyle=orthogonalEdgeStyle;rounded=0;orthogonalLoop=1;jettySize=auto;html=1;entryX=0.5;entryY=0;entryDx=0;entryDy=0;" parent="1" source="7XZiGTUoOBMjNa7C7n4A-87" target="7XZiGTUoOBMjNa7C7n4A-89" edge="1">
                    <mxGeometry relative="1" as="geometry"/>
                </mxCell>
                <mxCell id="7XZiGTUoOBMjNa7C7n4A-87" value="Twist counter clockwise 1 full rotation" style="rounded=1;whiteSpace=wrap;html=1;" parent="1" vertex="1">
                    <mxGeometry x="130" y="3570" width="120" height="60" as="geometry"/>
                </mxCell>
                <mxCell id="7XZiGTUoOBMjNa7C7n4A-88" style="edgeStyle=orthogonalEdgeStyle;rounded=0;orthogonalLoop=1;jettySize=auto;html=1;" parent="1" source="7XZiGTUoOBMjNa7C7n4A-89" target="7XZiGTUoOBMjNa7C7n4A-91" edge="1">
                    <mxGeometry relative="1" as="geometry"/>
                </mxCell>
                <mxCell id="7XZiGTUoOBMjNa7C7n4A-89" value="Pull cap" style="rounded=1;whiteSpace=wrap;html=1;" parent="1" vertex="1">
                    <mxGeometry x="130" y="3670" width="120" height="60" as="geometry"/>
                </mxCell>
                <mxCell id="7XZiGTUoOBMjNa7C7n4A-90" style="edgeStyle=orthogonalEdgeStyle;rounded=0;orthogonalLoop=1;jettySize=auto;html=1;" parent="1" source="7XZiGTUoOBMjNa7C7n4A-91" target="7XZiGTUoOBMjNa7C7n4A-95" edge="1">
                    <mxGeometry relative="1" as="geometry"/>
                </mxCell>
                <mxCell id="7XZiGTUoOBMjNa7C7n4A-91" value="Verify cap is off rest of jar" style="rounded=1;whiteSpace=wrap;html=1;" parent="1" vertex="1">
                    <mxGeometry x="130" y="3770" width="120" height="60" as="geometry"/>
                </mxCell>
                <mxCell id="7XZiGTUoOBMjNa7C7n4A-92" style="edgeStyle=orthogonalEdgeStyle;rounded=0;orthogonalLoop=1;jettySize=auto;html=1;entryX=1;entryY=0.5;entryDx=0;entryDy=0;" parent="1" source="7XZiGTUoOBMjNa7C7n4A-95" target="7XZiGTUoOBMjNa7C7n4A-87" edge="1">
                    <mxGeometry relative="1" as="geometry">
                        <Array as="points">
                            <mxPoint x="270" y="3900"/>
                            <mxPoint x="270" y="3600"/>
                        </Array>
                    </mxGeometry>
                </mxCell>
                <mxCell id="7XZiGTUoOBMjNa7C7n4A-93" value="Cap is not off jar" style="edgeLabel;html=1;align=center;verticalAlign=middle;resizable=0;points=[];" parent="7XZiGTUoOBMjNa7C7n4A-92" vertex="1" connectable="0">
                    <mxGeometry x="-0.4556" y="-1" relative="1" as="geometry">
                        <mxPoint y="28" as="offset"/>
                    </mxGeometry>
                </mxCell>
                <mxCell id="7XZiGTUoOBMjNa7C7n4A-94" style="edgeStyle=orthogonalEdgeStyle;rounded=0;orthogonalLoop=1;jettySize=auto;html=1;entryX=0.5;entryY=0;entryDx=0;entryDy=0;" parent="1" source="7XZiGTUoOBMjNa7C7n4A-95" target="7XZiGTUoOBMjNa7C7n4A-97" edge="1">
                    <mxGeometry relative="1" as="geometry"/>
                </mxCell>
                <mxCell id="7XZiGTUoOBMjNa7C7n4A-152" value="Cap off Jar" style="edgeLabel;html=1;align=center;verticalAlign=middle;resizable=0;points=[];" parent="7XZiGTUoOBMjNa7C7n4A-94" vertex="1" connectable="0">
                    <mxGeometry x="-0.4" relative="1" as="geometry">
                        <mxPoint as="offset"/>
                    </mxGeometry>
                </mxCell>
                <mxCell id="7XZiGTUoOBMjNa7C7n4A-95" value="" style="rhombus;whiteSpace=wrap;html=1;" parent="1" vertex="1">
                    <mxGeometry x="150" y="3860" width="80" height="80" as="geometry"/>
                </mxCell>
                <mxCell id="7XZiGTUoOBMjNa7C7n4A-96" style="edgeStyle=orthogonalEdgeStyle;rounded=0;orthogonalLoop=1;jettySize=auto;html=1;entryX=0.5;entryY=0;entryDx=0;entryDy=0;" parent="1" source="7XZiGTUoOBMjNa7C7n4A-97" target="7XZiGTUoOBMjNa7C7n4A-99" edge="1">
                    <mxGeometry relative="1" as="geometry"/>
                </mxCell>
                <mxCell id="7XZiGTUoOBMjNa7C7n4A-97" value="place cap on table away from bread" style="rounded=1;whiteSpace=wrap;html=1;" parent="1" vertex="1">
                    <mxGeometry x="130" y="3990" width="120" height="60" as="geometry"/>
                </mxCell>
                <mxCell id="7XZiGTUoOBMjNa7C7n4A-98" style="edgeStyle=orthogonalEdgeStyle;rounded=0;orthogonalLoop=1;jettySize=auto;html=1;" parent="1" source="7XZiGTUoOBMjNa7C7n4A-99" target="7XZiGTUoOBMjNa7C7n4A-104" edge="1">
                    <mxGeometry relative="1" as="geometry"/>
                </mxCell>
                <mxCell id="7XZiGTUoOBMjNa7C7n4A-99" value="Grab knife on non-serrated handle with right hand" style="rounded=1;whiteSpace=wrap;html=1;" parent="1" vertex="1">
                    <mxGeometry x="130" y="4080" width="120" height="60" as="geometry"/>
                </mxCell>
                <mxCell id="7XZiGTUoOBMjNa7C7n4A-100" style="edgeStyle=orthogonalEdgeStyle;rounded=0;orthogonalLoop=1;jettySize=auto;html=1;entryX=0.5;entryY=0;entryDx=0;entryDy=0;" parent="1" source="7XZiGTUoOBMjNa7C7n4A-101" target="7XZiGTUoOBMjNa7C7n4A-107" edge="1">
                    <mxGeometry relative="1" as="geometry"/>
                </mxCell>
                <mxCell id="7XZiGTUoOBMjNa7C7n4A-101" value="Place serrated edge of knife into jelly till 50% of knife is submerged " style="rounded=1;whiteSpace=wrap;html=1;" parent="1" vertex="1">
                    <mxGeometry x="240" y="4220" width="120" height="60" as="geometry"/>
                </mxCell>
                <mxCell id="7XZiGTUoOBMjNa7C7n4A-102" style="edgeStyle=orthogonalEdgeStyle;rounded=0;orthogonalLoop=1;jettySize=auto;html=1;entryX=0.5;entryY=0;entryDx=0;entryDy=0;" parent="1" source="7XZiGTUoOBMjNa7C7n4A-104" target="7XZiGTUoOBMjNa7C7n4A-101" edge="1">
                    <mxGeometry relative="1" as="geometry"/>
                </mxCell>
                <mxCell id="7XZiGTUoOBMjNa7C7n4A-161" value="If jar &amp;gt;50% full" style="edgeLabel;html=1;align=center;verticalAlign=middle;resizable=0;points=[];" parent="7XZiGTUoOBMjNa7C7n4A-102" vertex="1" connectable="0">
                    <mxGeometry x="-0.0667" y="1" relative="1" as="geometry">
                        <mxPoint as="offset"/>
                    </mxGeometry>
                </mxCell>
                <mxCell id="7XZiGTUoOBMjNa7C7n4A-124" style="edgeStyle=orthogonalEdgeStyle;rounded=0;orthogonalLoop=1;jettySize=auto;html=1;entryX=0.5;entryY=0;entryDx=0;entryDy=0;" parent="1" source="7XZiGTUoOBMjNa7C7n4A-104" target="7XZiGTUoOBMjNa7C7n4A-123" edge="1">
                    <mxGeometry relative="1" as="geometry">
                        <Array as="points">
                            <mxPoint x="110" y="4185"/>
                        </Array>
                    </mxGeometry>
                </mxCell>
                <mxCell id="7XZiGTUoOBMjNa7C7n4A-160" value="If jar &amp;lt;50% full" style="edgeLabel;html=1;align=center;verticalAlign=middle;resizable=0;points=[];" parent="7XZiGTUoOBMjNa7C7n4A-124" vertex="1" connectable="0">
                    <mxGeometry x="0.0222" relative="1" as="geometry">
                        <mxPoint as="offset"/>
                    </mxGeometry>
                </mxCell>
                <mxCell id="7XZiGTUoOBMjNa7C7n4A-104" value="" style="rhombus;whiteSpace=wrap;html=1;" parent="1" vertex="1">
                    <mxGeometry x="165" y="4160" width="50" height="50" as="geometry"/>
                </mxCell>
                <mxCell id="7XZiGTUoOBMjNa7C7n4A-105" style="edgeStyle=orthogonalEdgeStyle;rounded=0;orthogonalLoop=1;jettySize=auto;html=1;entryX=0.5;entryY=0;entryDx=0;entryDy=0;exitX=0.5;exitY=1;exitDx=0;exitDy=0;" parent="1" source="7XZiGTUoOBMjNa7C7n4A-123" target="7XZiGTUoOBMjNa7C7n4A-107" edge="1">
                    <mxGeometry relative="1" as="geometry">
                        <mxPoint x="105" y="4280" as="sourcePoint"/>
                    </mxGeometry>
                </mxCell>
                <mxCell id="7XZiGTUoOBMjNa7C7n4A-106" style="edgeStyle=orthogonalEdgeStyle;rounded=0;orthogonalLoop=1;jettySize=auto;html=1;entryX=0.5;entryY=0;entryDx=0;entryDy=0;" parent="1" source="7XZiGTUoOBMjNa7C7n4A-107" target="7XZiGTUoOBMjNa7C7n4A-109" edge="1">
                    <mxGeometry relative="1" as="geometry"/>
                </mxCell>
                <mxCell id="7XZiGTUoOBMjNa7C7n4A-107" value="Scrape jelly from jar toward mass of jelly" style="rounded=1;whiteSpace=wrap;html=1;" parent="1" vertex="1">
                    <mxGeometry x="130" y="4320" width="120" height="60" as="geometry"/>
                </mxCell>
                <mxCell id="7XZiGTUoOBMjNa7C7n4A-108" style="edgeStyle=orthogonalEdgeStyle;rounded=0;orthogonalLoop=1;jettySize=auto;html=1;entryX=0.5;entryY=0;entryDx=0;entryDy=0;" parent="1" source="7XZiGTUoOBMjNa7C7n4A-109" target="7XZiGTUoOBMjNa7C7n4A-111" edge="1">
                    <mxGeometry relative="1" as="geometry"/>
                </mxCell>
                <mxCell id="7XZiGTUoOBMjNa7C7n4A-109" value="remove knife from jelly jar" style="rounded=1;whiteSpace=wrap;html=1;" parent="1" vertex="1">
                    <mxGeometry x="130" y="4420" width="120" height="60" as="geometry"/>
                </mxCell>
                <mxCell id="7XZiGTUoOBMjNa7C7n4A-110" style="edgeStyle=orthogonalEdgeStyle;rounded=0;orthogonalLoop=1;jettySize=auto;html=1;entryX=0.5;entryY=0;entryDx=0;entryDy=0;" parent="1" source="7XZiGTUoOBMjNa7C7n4A-111" target="7XZiGTUoOBMjNa7C7n4A-114" edge="1">
                    <mxGeometry relative="1" as="geometry"/>
                </mxCell>
                <mxCell id="7XZiGTUoOBMjNa7C7n4A-111" value="Verify glob of jelly on knife" style="rounded=1;whiteSpace=wrap;html=1;" parent="1" vertex="1">
                    <mxGeometry x="130" y="4530" width="120" height="60" as="geometry"/>
                </mxCell>
                <mxCell id="7XZiGTUoOBMjNa7C7n4A-113" style="edgeStyle=orthogonalEdgeStyle;rounded=0;orthogonalLoop=1;jettySize=auto;html=1;entryX=0.5;entryY=0;entryDx=0;entryDy=0;" parent="1" source="7XZiGTUoOBMjNa7C7n4A-114" target="7XZiGTUoOBMjNa7C7n4A-116" edge="1">
                    <mxGeometry relative="1" as="geometry"/>
                </mxCell>
                <mxCell id="7XZiGTUoOBMjNa7C7n4A-151" value="Glob of Jelly on knife" style="edgeLabel;html=1;align=center;verticalAlign=middle;resizable=0;points=[];" parent="7XZiGTUoOBMjNa7C7n4A-113" vertex="1" connectable="0">
                    <mxGeometry x="-0.4857" y="1" relative="1" as="geometry">
                        <mxPoint as="offset"/>
                    </mxGeometry>
                </mxCell>
                <mxCell id="7XZiGTUoOBMjNa7C7n4A-126" style="edgeStyle=orthogonalEdgeStyle;rounded=0;orthogonalLoop=1;jettySize=auto;html=1;entryX=0.5;entryY=0;entryDx=0;entryDy=0;" parent="1" source="7XZiGTUoOBMjNa7C7n4A-114" target="7XZiGTUoOBMjNa7C7n4A-104" edge="1">
                    <mxGeometry relative="1" as="geometry">
                        <Array as="points">
                            <mxPoint x="410" y="4680"/>
                            <mxPoint x="410" y="4150"/>
                            <mxPoint x="190" y="4150"/>
                        </Array>
                    </mxGeometry>
                </mxCell>
                <mxCell id="7XZiGTUoOBMjNa7C7n4A-162" value="Jelly not on knife" style="edgeLabel;html=1;align=center;verticalAlign=middle;resizable=0;points=[];" parent="7XZiGTUoOBMjNa7C7n4A-126" vertex="1" connectable="0">
                    <mxGeometry x="-0.8553" y="-1" relative="1" as="geometry">
                        <mxPoint as="offset"/>
                    </mxGeometry>
                </mxCell>
                <mxCell id="7XZiGTUoOBMjNa7C7n4A-114" value="" style="rhombus;whiteSpace=wrap;html=1;" parent="1" vertex="1">
                    <mxGeometry x="150" y="4640" width="80" height="80" as="geometry"/>
                </mxCell>
                <mxCell id="7XZiGTUoOBMjNa7C7n4A-115" style="edgeStyle=orthogonalEdgeStyle;rounded=0;orthogonalLoop=1;jettySize=auto;html=1;entryX=0.5;entryY=0;entryDx=0;entryDy=0;" parent="1" source="7XZiGTUoOBMjNa7C7n4A-116" target="7XZiGTUoOBMjNa7C7n4A-118" edge="1">
                    <mxGeometry relative="1" as="geometry"/>
                </mxCell>
                <mxCell id="7XZiGTUoOBMjNa7C7n4A-116" value="Place Jelly glob on 2nd, un-peanut buttered bread lightly" style="rounded=1;whiteSpace=wrap;html=1;" parent="1" vertex="1">
                    <mxGeometry x="130" y="4790" width="120" height="60" as="geometry"/>
                </mxCell>
                <mxCell id="7XZiGTUoOBMjNa7C7n4A-117" style="edgeStyle=orthogonalEdgeStyle;rounded=0;orthogonalLoop=1;jettySize=auto;html=1;entryX=0.5;entryY=0;entryDx=0;entryDy=0;" parent="1" source="7XZiGTUoOBMjNa7C7n4A-118" target="7XZiGTUoOBMjNa7C7n4A-120" edge="1">
                    <mxGeometry relative="1" as="geometry"/>
                </mxCell>
                <mxCell id="7XZiGTUoOBMjNa7C7n4A-118" value="Spread Jelly on bread staying within the boundary of the crust till evenly spread" style="rounded=1;whiteSpace=wrap;html=1;" parent="1" vertex="1">
                    <mxGeometry x="130" y="4930" width="120" height="80" as="geometry"/>
                </mxCell>
                <mxCell id="7XZiGTUoOBMjNa7C7n4A-119" style="edgeStyle=orthogonalEdgeStyle;rounded=0;orthogonalLoop=1;jettySize=auto;html=1;entryX=0.5;entryY=0;entryDx=0;entryDy=0;" parent="1" source="7XZiGTUoOBMjNa7C7n4A-120" target="7XZiGTUoOBMjNa7C7n4A-121" edge="1">
                    <mxGeometry relative="1" as="geometry"/>
                </mxCell>
                <mxCell id="7XZiGTUoOBMjNa7C7n4A-120" value="Place knife on table away from all other objects" style="rounded=1;whiteSpace=wrap;html=1;" parent="1" vertex="1">
                    <mxGeometry x="130" y="5060" width="120" height="60" as="geometry"/>
                </mxCell>
                <mxCell id="7XZiGTUoOBMjNa7C7n4A-128" style="edgeStyle=orthogonalEdgeStyle;rounded=0;orthogonalLoop=1;jettySize=auto;html=1;entryX=0.5;entryY=0;entryDx=0;entryDy=0;" parent="1" source="7XZiGTUoOBMjNa7C7n4A-121" target="7XZiGTUoOBMjNa7C7n4A-127" edge="1">
                    <mxGeometry relative="1" as="geometry"/>
                </mxCell>
                <mxCell id="7XZiGTUoOBMjNa7C7n4A-121" value="Place jelly jar back on table away from other objects" style="rounded=1;whiteSpace=wrap;html=1;" parent="1" vertex="1">
                    <mxGeometry x="130" y="5160" width="120" height="60" as="geometry"/>
                </mxCell>
                <mxCell id="7XZiGTUoOBMjNa7C7n4A-123" value="Insert knife into jelly jar till touching jelly mass" style="rounded=1;whiteSpace=wrap;html=1;" parent="1" vertex="1">
                    <mxGeometry x="50" y="4220" width="120" height="60" as="geometry"/>
                </mxCell>
                <mxCell id="7XZiGTUoOBMjNa7C7n4A-132" style="edgeStyle=orthogonalEdgeStyle;rounded=0;orthogonalLoop=1;jettySize=auto;html=1;" parent="1" source="7XZiGTUoOBMjNa7C7n4A-127" target="7XZiGTUoOBMjNa7C7n4A-129" edge="1">
                    <mxGeometry relative="1" as="geometry"/>
                </mxCell>
                <mxCell id="7XZiGTUoOBMjNa7C7n4A-127" value="Take peanut butter bread holding the crust and un-peanut buttered side" style="rounded=1;whiteSpace=wrap;html=1;" parent="1" vertex="1">
                    <mxGeometry x="130" y="5290" width="120" height="60" as="geometry"/>
                </mxCell>
                <mxCell id="7XZiGTUoOBMjNa7C7n4A-142" style="edgeStyle=orthogonalEdgeStyle;rounded=0;orthogonalLoop=1;jettySize=auto;html=1;" parent="1" source="7XZiGTUoOBMjNa7C7n4A-129" target="7XZiGTUoOBMjNa7C7n4A-133" edge="1">
                    <mxGeometry relative="1" as="geometry"/>
                </mxCell>
                <mxCell id="7XZiGTUoOBMjNa7C7n4A-129" value="Place peanut buttered side onto the bread with the jelly on the jellyied side aligning crust so that the outlines of the bread roughly line up" style="rounded=1;whiteSpace=wrap;html=1;" parent="1" vertex="1">
                    <mxGeometry x="130" y="5380" width="120" height="110" as="geometry"/>
                </mxCell>
                <mxCell id="7XZiGTUoOBMjNa7C7n4A-135" style="edgeStyle=orthogonalEdgeStyle;rounded=0;orthogonalLoop=1;jettySize=auto;html=1;entryX=0.5;entryY=0;entryDx=0;entryDy=0;" parent="1" source="7XZiGTUoOBMjNa7C7n4A-133" target="7XZiGTUoOBMjNa7C7n4A-134" edge="1">
                    <mxGeometry relative="1" as="geometry"/>
                </mxCell>
                <mxCell id="7XZiGTUoOBMjNa7C7n4A-147" value="If christan" style="edgeLabel;html=1;align=center;verticalAlign=middle;resizable=0;points=[];" parent="7XZiGTUoOBMjNa7C7n4A-135" vertex="1" connectable="0">
                    <mxGeometry x="-0.4571" y="-1" relative="1" as="geometry">
                        <mxPoint as="offset"/>
                    </mxGeometry>
                </mxCell>
                <mxCell id="7XZiGTUoOBMjNa7C7n4A-139" style="edgeStyle=orthogonalEdgeStyle;rounded=0;orthogonalLoop=1;jettySize=auto;html=1;entryX=0.5;entryY=0;entryDx=0;entryDy=0;" parent="1" source="7XZiGTUoOBMjNa7C7n4A-133" target="7XZiGTUoOBMjNa7C7n4A-137" edge="1">
                    <mxGeometry relative="1" as="geometry"/>
                </mxCell>
                <mxCell id="7XZiGTUoOBMjNa7C7n4A-148" value="Not Chistian" style="edgeLabel;html=1;align=center;verticalAlign=middle;resizable=0;points=[];" parent="7XZiGTUoOBMjNa7C7n4A-139" vertex="1" connectable="0">
                    <mxGeometry x="-0.55" y="-1" relative="1" as="geometry">
                        <mxPoint x="13" y="-1" as="offset"/>
                    </mxGeometry>
                </mxCell>
                <mxCell id="7XZiGTUoOBMjNa7C7n4A-133" value="" style="rhombus;whiteSpace=wrap;html=1;" parent="1" vertex="1">
                    <mxGeometry x="150" y="5510" width="80" height="80" as="geometry"/>
                </mxCell>
                <mxCell id="7XZiGTUoOBMjNa7C7n4A-146" style="edgeStyle=orthogonalEdgeStyle;rounded=0;orthogonalLoop=1;jettySize=auto;html=1;entryX=0.5;entryY=0;entryDx=0;entryDy=0;" parent="1" source="7XZiGTUoOBMjNa7C7n4A-134" target="7XZiGTUoOBMjNa7C7n4A-143" edge="1">
                    <mxGeometry relative="1" as="geometry"/>
                </mxCell>
                <mxCell id="7XZiGTUoOBMjNa7C7n4A-134" value="Pray" style="rounded=1;whiteSpace=wrap;html=1;" parent="1" vertex="1">
                    <mxGeometry x="20" y="5620" width="120" height="60" as="geometry"/>
                </mxCell>
                <mxCell id="7XZiGTUoOBMjNa7C7n4A-141" style="edgeStyle=orthogonalEdgeStyle;rounded=0;orthogonalLoop=1;jettySize=auto;html=1;entryX=0.5;entryY=0;entryDx=0;entryDy=0;exitX=0;exitY=0.5;exitDx=0;exitDy=0;" parent="1" source="7XZiGTUoOBMjNa7C7n4A-137" target="7XZiGTUoOBMjNa7C7n4A-138" edge="1">
                    <mxGeometry relative="1" as="geometry"/>
                </mxCell>
                <mxCell id="7XZiGTUoOBMjNa7C7n4A-149" value="&lt;div&gt;If observing&amp;nbsp;&lt;/div&gt;&lt;div&gt;ramadan&lt;/div&gt;" style="edgeLabel;html=1;align=center;verticalAlign=middle;resizable=0;points=[];" parent="7XZiGTUoOBMjNa7C7n4A-141" vertex="1" connectable="0">
                    <mxGeometry x="-0.58" y="1" relative="1" as="geometry">
                        <mxPoint x="-14" y="-1" as="offset"/>
                    </mxGeometry>
                </mxCell>
                <mxCell id="7XZiGTUoOBMjNa7C7n4A-144" style="edgeStyle=orthogonalEdgeStyle;rounded=0;orthogonalLoop=1;jettySize=auto;html=1;entryX=0.5;entryY=0;entryDx=0;entryDy=0;" parent="1" source="7XZiGTUoOBMjNa7C7n4A-137" target="7XZiGTUoOBMjNa7C7n4A-143" edge="1">
                    <mxGeometry relative="1" as="geometry">
                        <Array as="points">
                            <mxPoint x="360" y="5650"/>
                            <mxPoint x="360" y="5860"/>
                            <mxPoint x="170" y="5860"/>
                        </Array>
                    </mxGeometry>
                </mxCell>
                <mxCell id="7XZiGTUoOBMjNa7C7n4A-150" value="Not Observing Ramadan" style="edgeLabel;html=1;align=center;verticalAlign=middle;resizable=0;points=[];" parent="7XZiGTUoOBMjNa7C7n4A-144" vertex="1" connectable="0">
                    <mxGeometry x="-0.5644" y="3" relative="1" as="geometry">
                        <mxPoint as="offset"/>
                    </mxGeometry>
                </mxCell>
                <mxCell id="7XZiGTUoOBMjNa7C7n4A-137" value="" style="rhombus;whiteSpace=wrap;html=1;" parent="1" vertex="1">
                    <mxGeometry x="250" y="5610" width="80" height="80" as="geometry"/>
                </mxCell>
                <mxCell id="7XZiGTUoOBMjNa7C7n4A-145" style="edgeStyle=orthogonalEdgeStyle;rounded=0;orthogonalLoop=1;jettySize=auto;html=1;entryX=0.5;entryY=0;entryDx=0;entryDy=0;" parent="1" source="7XZiGTUoOBMjNa7C7n4A-138" target="7XZiGTUoOBMjNa7C7n4A-143" edge="1">
                    <mxGeometry relative="1" as="geometry"/>
                </mxCell>
                <mxCell id="7XZiGTUoOBMjNa7C7n4A-138" value="Wait till sundown" style="rounded=1;whiteSpace=wrap;html=1;" parent="1" vertex="1">
                    <mxGeometry x="150" y="5710" width="120" height="60" as="geometry"/>
                </mxCell>
                <mxCell id="7XZiGTUoOBMjNa7C7n4A-143" value="Eat sandwhich" style="rounded=1;whiteSpace=wrap;html=1;" parent="1" vertex="1">
                    <mxGeometry x="110" y="5920" width="120" height="60" as="geometry"/>
                </mxCell>
            </root>
        </mxGraphModel>
    </diagram>
</mxfile>